<svg class="jora-logo header-desktop" viewBox="0 0 67 67" fill="none" xmlns="http://www.w3.org/2000/svg">
<g clip-path="url(#clip0_254_2)">
<path d="M0.5 32.98C0.5 14.76 15.27 0 33.48 0C51.69 0 66.46 14.76 66.46 32.98C66.46 51.2 51.7 65.96 33.48 65.96C15.26 65.96 0.5 51.2 0.5 32.98Z" fill="#6b5dff"></path>
<path d="M34.26 12.58C34.26 11.44 35.18 10.52 36.32 10.52C37.46 10.52 38.38 11.44 38.38 12.58C38.38 13.72 37.46 14.64 36.32 14.64C35.18 14.64 34.26 13.72 34.26 12.58Z" fill="white"></path>
<path d="M40.6801 19.51C40.6801 18.25 41.7001 17.23 42.9501 17.23C44.2001 17.23 45.2301 18.25 45.2301 19.51C45.2301 20.77 44.2101 21.78 42.9501 21.78C41.6901 21.78 40.6801 20.76 40.6801 19.51Z" fill="white"></path>
<path d="M34.26 19.51C34.26 18.37 35.18 17.45 36.32 17.45C37.46 17.45 38.38 18.37 38.38 19.51C38.38 20.65 37.46 21.57 36.32 21.57C35.18 21.57 34.26 20.64 34.26 19.51Z" fill="white"></path>
<path d="M47.5 26.4599C47.5 25.0499 48.64 23.9099 50.05 23.9099C51.46 23.9099 52.6 25.0499 52.6 26.4599C52.6 27.8699 51.46 29.0099 50.05 29.0099C48.64 29.0099 47.5 27.8699 47.5 26.4599Z" fill="white"></path>
<path d="M40.6801 26.4399C40.6801 25.1799 41.7001 24.1699 42.9501 24.1699C44.2001 24.1699 45.2301 25.1899 45.2301 26.4399C45.2301 27.6899 44.2101 28.7099 42.9501 28.7099C41.6901 28.7099 40.6801 27.6899 40.6801 26.4399Z" fill="white"></path>
<path d="M34.26 26.4399C34.26 25.2999 35.18 24.3799 36.32 24.3799C37.46 24.3799 38.38 25.2999 38.38 26.4399C38.38 27.5799 37.46 28.4999 36.32 28.4999C35.18 28.4999 34.26 27.5799 34.26 26.4399Z" fill="white"></path>
<path d="M28.14 26.4399C28.14 25.4399 28.95 24.6399 29.94 24.6399C30.93 24.6399 31.75 25.4499 31.75 26.4399C31.75 27.4299 30.94 28.2399 29.94 28.2399C28.94 28.2399 28.14 27.4299 28.14 26.4399Z" fill="white"></path>
<path d="M23.03 26.4399C23.03 25.5899 23.72 24.8899 24.57 24.8899C25.42 24.8899 26.11 25.5799 26.11 26.4399C26.11 27.2999 25.42 27.9899 24.57 27.9899C23.72 27.9899 23.03 27.2999 23.03 26.4399Z" fill="white"></path>
<path d="M18.16 26.4399C18.16 25.7299 18.74 25.1499 19.45 25.1499C20.16 25.1499 20.74 25.7299 20.74 26.4399C20.74 27.1499 20.17 27.7299 19.45 27.7299C18.73 27.7299 18.16 27.1499 18.16 26.4399Z" fill="white"></path>
<path d="M14.03 26.4399C14.03 25.8699 14.49 25.4099 15.06 25.4099C15.63 25.4099 16.09 25.8699 16.09 26.4399C16.09 27.0099 15.63 27.4699 15.06 27.4699C14.49 27.4699 14.03 27.0099 14.03 26.4399Z" fill="white"></path>
<path d="M10.13 26.4399C10.13 26.0099 10.47 25.6699 10.9 25.6699C11.33 25.6699 11.67 26.0199 11.67 26.4399C11.67 26.8599 11.32 27.2099 10.9 27.2099C10.48 27.2099 10.13 26.8599 10.13 26.4399Z" fill="white"></path>
<path d="M6.82996 26.4399C6.82996 26.1499 7.05996 25.9299 7.34996 25.9299C7.63996 25.9299 7.85996 26.1599 7.85996 26.4399C7.85996 26.7199 7.62996 26.9599 7.34996 26.9599C7.06996 26.9599 6.82996 26.7299 6.82996 26.4399Z" fill="white"></path>
<path d="M47.5 33.3901C47.5 31.9801 48.64 30.8401 50.05 30.8401C51.46 30.8401 52.6 31.9901 52.6 33.3901C52.6 34.7901 51.46 35.9401 50.05 35.9401C48.64 35.9401 47.5 34.8001 47.5 33.3901Z" fill="white"></path>
<path d="M40.6801 33.3701C40.6801 32.1101 41.7001 31.1001 42.9501 31.1001C44.2001 31.1001 45.2301 32.1101 45.2301 33.3701C45.2301 34.6301 44.2101 35.6501 42.9501 35.6501C41.6901 35.6501 40.6801 34.6301 40.6801 33.3701Z" fill="white"></path>
<path d="M34.26 33.3701C34.26 32.2301 35.18 31.3101 36.32 31.3101C37.46 31.3101 38.38 32.2301 38.38 33.3701C38.38 34.5101 37.46 35.4301 36.32 35.4301C35.18 35.4301 34.26 34.5101 34.26 33.3701Z" fill="white"></path>
<path d="M28.14 33.3701C28.14 32.3701 28.95 31.5701 29.94 31.5701C30.93 31.5701 31.75 32.3801 31.75 33.3701C31.75 34.3601 30.94 35.1701 29.94 35.1701C28.94 35.1701 28.14 34.3601 28.14 33.3701Z" fill="white"></path>
<path d="M23.03 33.3701C23.03 32.5201 23.72 31.8201 24.57 31.8201C25.42 31.8201 26.11 32.5101 26.11 33.3701C26.11 34.2301 25.42 34.9201 24.57 34.9201C23.72 34.9201 23.03 34.2301 23.03 33.3701Z" fill="white"></path>
<path d="M18.16 33.3701C18.16 32.6601 18.74 32.0801 19.45 32.0801C20.16 32.0801 20.74 32.6501 20.74 33.3701C20.74 34.0901 20.17 34.6601 19.45 34.6601C18.73 34.6601 18.16 34.0801 18.16 33.3701Z" fill="white"></path>
<path d="M14.03 33.3701C14.03 32.8001 14.49 32.3401 15.06 32.3401C15.63 32.3401 16.09 32.8001 16.09 33.3701C16.09 33.9401 15.63 34.4001 15.06 34.4001C14.49 34.4001 14.03 33.9401 14.03 33.3701Z" fill="white"></path>
<path d="M10.13 33.3701C10.13 32.9401 10.47 32.6001 10.9 32.6001C11.33 32.6001 11.67 32.9501 11.67 33.3701C11.67 33.7901 11.32 34.1401 10.9 34.1401C10.48 34.1401 10.13 33.8001 10.13 33.3701Z" fill="white"></path>
<path d="M6.82996 33.3701C6.82996 33.0801 7.05996 32.8501 7.34996 32.8501C7.63996 32.8501 7.85996 33.0801 7.85996 33.3701C7.85996 33.6601 7.62996 33.8901 7.34996 33.8901C7.06996 33.8901 6.82996 33.6601 6.82996 33.3701Z" fill="white"></path>
<path d="M54.5 33.4399C54.5 31.8899 55.76 30.6399 57.3 30.6399C58.84 30.6399 60.1 31.8899 60.1 33.4399C60.1 34.9899 58.85 36.2299 57.3 36.2299C55.75 36.2299 54.5 34.9799 54.5 33.4399Z" fill="white"></path>
<path d="M47.5 40.32C47.5 38.91 48.64 37.77 50.05 37.77C51.46 37.77 52.6 38.91 52.6 40.32C52.6 41.73 51.46 42.87 50.05 42.87C48.64 42.87 47.5 41.73 47.5 40.32Z" fill="white"></path>
<path d="M40.6801 40.3C40.6801 39.04 41.7001 38.02 42.9501 38.02C44.2001 38.02 45.2301 39.04 45.2301 40.3C45.2301 41.56 44.2101 42.57 42.9501 42.57C41.6901 42.57 40.6801 41.55 40.6801 40.3Z" fill="white"></path>
<path d="M34.26 40.3C34.26 39.16 35.18 38.24 36.32 38.24C37.46 38.24 38.38 39.16 38.38 40.3C38.38 41.44 37.46 42.36 36.32 42.36C35.18 42.36 34.26 41.44 34.26 40.3Z" fill="white"></path>
<path d="M28.14 40.3C28.14 39.3 28.95 38.49 29.94 38.49C30.93 38.49 31.75 39.3 31.75 40.3C31.75 41.3 30.94 42.1 29.94 42.1C28.94 42.1 28.14 41.3 28.14 40.3Z" fill="white"></path>
<path d="M23.03 40.3C23.03 39.44 23.72 38.75 24.57 38.75C25.42 38.75 26.11 39.44 26.11 40.3C26.11 41.16 25.42 41.84 24.57 41.84C23.72 41.84 23.03 41.15 23.03 40.3Z" fill="white"></path>
<path d="M18.16 40.3C18.16 39.58 18.74 39.01 19.45 39.01C20.16 39.01 20.74 39.58 20.74 40.3C20.74 41.02 20.17 41.59 19.45 41.59C18.73 41.59 18.16 41.01 18.16 40.3Z" fill="white"></path>
<path d="M14.03 40.3C14.03 39.73 14.49 39.27 15.06 39.27C15.63 39.27 16.09 39.73 16.09 40.3C16.09 40.87 15.63 41.33 15.06 41.33C14.49 41.33 14.03 40.87 14.03 40.3Z" fill="white"></path>
<path d="M10.13 40.3C10.13 39.87 10.47 39.52 10.9 39.52C11.33 39.52 11.67 39.87 11.67 40.3C11.67 40.73 11.32 41.07 10.9 41.07C10.48 41.07 10.13 40.72 10.13 40.3Z" fill="white"></path>
<path d="M6.82996 40.3C6.82996 40.01 7.05996 39.78 7.34996 39.78C7.63996 39.78 7.85996 40.01 7.85996 40.3C7.85996 40.59 7.62996 40.81 7.34996 40.81C7.06996 40.81 6.82996 40.58 6.82996 40.3Z" fill="white"></path>
<path d="M40.6801 47.2299C40.6801 45.9699 41.7001 44.95 42.9501 44.95C44.2001 44.95 45.2301 45.9699 45.2301 47.2299C45.2301 48.4899 44.2101 49.5 42.9501 49.5C41.6901 49.5 40.6801 48.4799 40.6801 47.2299Z" fill="white"></path>
<path d="M34.26 47.2299C34.26 46.0899 35.18 45.1599 36.32 45.1599C37.46 45.1599 38.38 46.0899 38.38 47.2299C38.38 48.3699 37.46 49.2899 36.32 49.2899C35.18 49.2899 34.26 48.3699 34.26 47.2299Z" fill="white"></path>
<path d="M34.26 54.1601C34.26 53.0201 35.18 52.1001 36.32 52.1001C37.46 52.1001 38.38 53.0201 38.38 54.1601C38.38 55.3001 37.46 56.2201 36.32 56.2201C35.18 56.2201 34.26 55.3001 34.26 54.1601Z" fill="white"></path>
</g>
<defs>
<clipPath id="clip0_254_2">
<rect width="247.87" height="65.96" fill="white" transform="translate(0.5)"></rect>
</clipPath>
</defs>
</svg>